<?xml version="1.0" encoding="UTF-8" standalone="no"?>
<!-- Generator: Adobe Illustrator 27.5.0, SVG Export Plug-In . SVG Version: 6.00 Build 0)  -->

<svg
   version="1.1"
   x="0px"
   y="0px"
   viewBox="0 0 172.73121 134.62572"
   xml:space="preserve"
   id="svg61"
   sodipodi:docname="aurafull.svg"
   inkscape:version="1.4.2 (f4327f4, 2025-05-13)"
   inkscape:export-filename="newauralogo.svg"
   inkscape:export-xdpi="96"
   inkscape:export-ydpi="96"
   width="172.73122"
   height="134.62572"
   xmlns:inkscape="http://www.inkscape.org/namespaces/inkscape"
   xmlns:sodipodi="http://sodipodi.sourceforge.net/DTD/sodipodi-0.dtd"
   xmlns="http://www.w3.org/2000/svg"
   xmlns:svg="http://www.w3.org/2000/svg"><defs
   id="defs61"><rect
     x="2.587322"
     y="127.42561"
     width="224.4502"
     height="23.2859"
     id="rect1" /></defs><sodipodi:namedview
   id="namedview61"
   pagecolor="#ffffff"
   bordercolor="#000000"
   borderopacity="0.25"
   inkscape:showpageshadow="2"
   inkscape:pageopacity="0.0"
   inkscape:pagecheckerboard="0"
   inkscape:deskcolor="#d1d1d1"
   inkscape:zoom="1.546"
   inkscape:cx="93.143596"
   inkscape:cy="61.772316"
   inkscape:window-width="1920"
   inkscape:window-height="991"
   inkscape:window-x="-9"
   inkscape:window-y="-9"
   inkscape:window-maximized="1"
   inkscape:current-layer="g47" />

<g
   id="OBJECTS"
   transform="translate(-163.87438,-102.799)">
	<g
   id="g47">
		<g
   id="g41">
			<g
   id="g22">
				<g
   id="g5">
					
						<linearGradient
   id="SVGID_00000115476561591903713450000017610561077433787533_"
   gradientUnits="userSpaceOnUse"
   x1="256.45819"
   y1="137.1691"
   x2="318.7341"
   y2="137.1691">
						<stop
   offset="0"
   style="stop-color:#9500ff;stop-opacity:1;"
   id="stop4" />
						<stop
   offset="1"
   style="stop-color:#8500b2;stop-opacity:1;"
   id="stop5" />
					</linearGradient>
					<path
   style="fill:url(#SVGID_00000115476561591903713450000017610561077433787533_)"
   d="m 314.441,141.037 -12.876,12.876 -40.815,-40.815 -4.293,4.293 42.961,42.961 c 0.593,0.59 1.371,0.888 2.146,0.888 0.778,0 1.553,-0.298 2.146,-0.888 l 15.022,-15.022 z"
   id="path5" />
				</g>
				<g
   id="g13">
					
						<linearGradient
   id="SVGID_00000003825740854171103630000011766906385814664070_"
   gradientUnits="userSpaceOnUse"
   x1="299.40759"
   y1="130.6761"
   x2="308.75281"
   y2="130.6761">
						<stop
   offset="0"
   style="stop-color:#9500ff;stop-opacity:1;"
   id="stop6" />
						<stop
   offset="1"
   style="stop-color:#8500b2;stop-opacity:1;"
   id="stop7" />
					</linearGradient>
					<path
   style="fill:url(#SVGID_00000003825740854171103630000011766906385814664070_)"
   d="m 299.42,126.017 9.333,9.331 -9.345,-9.345 c 0.004,0.005 0.008,0.01 0.012,0.014 z"
   id="path7" />
					
						<linearGradient
   id="SVGID_00000067233488331220319370000011642230253602862517_"
   gradientUnits="userSpaceOnUse"
   x1="253.2717"
   y1="155.5352"
   x2="321.76889"
   y2="155.5352">
						<stop
   offset="0"
   style="stop-color:#9500ff;stop-opacity:1;"
   id="stop8" />
						<stop
   offset="1"
   style="stop-color:#8500b2;stop-opacity:1;"
   id="stop9" />
					</linearGradient>
					<path
   style="fill:url(#SVGID_00000067233488331220319370000011642230253602862517_)"
   d="m 320.88,138.891 -7.084,-7.083 7.084,7.083 c 0.569,0.57 0.888,1.341 0.888,2.146 0,0.805 -0.32,1.577 -0.889,2.146 l -17.167,17.167 c -0.593,0.592 -1.369,0.889 -2.146,0.889 -0.777,0 -1.553,-0.296 -2.146,-0.889 l -2.146,-2.146 -8.78,8.78 c -7.553,7.553 -19.428,8.217 -27.743,1.993 l 23.649,-23.647 -4.292,-4.292 -25.948,25.946 c -0.569,0.569 -0.889,1.341 -0.889,2.146 0,0.805 0.32,1.577 0.889,2.146 5.325,5.324 12.32,7.985 19.314,7.985 6.994,0 13.988,-2.662 19.312,-7.986 l 28.094,-28.094 c 0.569,-0.569 0.889,-1.341 0.889,-2.146 0,-0.805 -0.32,-1.575 -0.889,-2.144 z"
   id="path9" />
					
						<linearGradient
   id="SVGID_00000103261379952611575770000013110245454889428371_"
   gradientUnits="userSpaceOnUse"
   x1="253.2717"
   y1="160.15041"
   x2="303.7121"
   y2="160.15041">
						<stop
   offset="0"
   style="stop-color:#9500ff;stop-opacity:1;"
   id="stop10" />
						<stop
   offset="1"
   style="stop-color:#8500b2;stop-opacity:1;"
   id="stop11" />
					</linearGradient>
					<path
   style="fill:url(#SVGID_00000103261379952611575770000013110245454889428371_)"
   d="m 303.712,160.352 -4.922,4.925 -6.003,6.001 c -5.325,5.325 -12.318,7.984 -19.312,7.984 -5.325,0 -10.655,-1.542 -15.243,-4.635 -0.615,-0.414 -1.217,-0.855 -1.804,-1.324 -0.783,-0.623 -1.542,-1.299 -2.268,-2.025 -0.568,-0.568 -0.888,-1.341 -0.888,-2.146 0,-0.806 0.32,-1.578 0.888,-2.146 l 23.172,-23.166 2.778,-2.778 2.025,2.028 2.265,2.262 -2.778,2.778 -20.871,20.871 c 0.607,0.455 1.233,0.872 1.876,1.252 8.15,4.839 18.865,3.755 25.867,-3.247 l 6.003,-6.001 2.778,-2.778 2.144,2.146 c 0.593,0.59 1.371,0.888 2.146,0.888 0.779,-0.001 1.554,-0.299 2.147,-0.889 z"
   id="path11" />
					
						<linearGradient
   id="SVGID_00000016777232594728899920000009288856770928493696_"
   gradientUnits="userSpaceOnUse"
   x1="253.2717"
   y1="157.17081"
   x2="284.39999"
   y2="157.17081">
						<stop
   offset="0"
   style="stop-color:#9500ff;stop-opacity:1;"
   id="stop12" />
						<stop
   offset="1"
   style="stop-color:#8500b2;stop-opacity:1;"
   id="stop13" />
					</linearGradient>
					<path
   style="fill:url(#SVGID_00000016777232594728899920000009288856770928493696_)"
   d="m 284.4,145.33 -2.778,2.778 -20.871,20.871 -4.323,4.323 c -0.783,-0.623 -1.542,-1.299 -2.268,-2.025 -0.568,-0.568 -0.888,-1.341 -0.888,-2.146 0,-0.806 0.32,-1.578 0.888,-2.146 l 23.172,-23.166 2.778,-2.778 2.025,2.028 z"
   id="path13" />
				</g>
				
					<linearGradient
   id="SVGID_00000083782987416674723330000017461648378049267074_"
   gradientUnits="userSpaceOnUse"
   x1="298.25089"
   y1="116.261"
   x2="276.7897"
   y2="137.7222">
					<stop
   offset="0"
   style="stop-color:#9500ff;stop-opacity:1;"
   id="stop14" />
					<stop
   offset="1"
   style="stop-color:#8500b2;stop-opacity:1;"
   id="stop15" />
				</linearGradient>
				<path
   style="fill:url(#SVGID_00000083782987416674723330000017461648378049267074_)"
   d="m 321.769,141.037 c 0,0.806 -0.32,1.578 -0.888,2.146 l -2.146,2.146 -30.237,-30.237 c -4.014,-4.014 -9.347,-6.224 -15.022,-6.224 -4.651,0 -9.071,1.484 -12.724,4.229 l -4.293,4.293 -2.298,-2.298 c -0.568,-0.571 -0.888,-1.341 -0.888,-2.146 0,-0.806 0.32,-1.578 0.888,-2.146 5.159,-5.159 12.018,-8.001 19.315,-8.001 7.294,0 14.153,2.842 19.312,8.001 l 28.094,28.091 c 0.567,0.571 0.887,1.34 0.887,2.146 z"
   id="path15" />
				<g
   style="opacity:0.61"
   id="g21">
					<g
   id="g19">
						
							<linearGradient
   id="SVGID_00000090255879868639976830000000915405541234959252_"
   gradientUnits="userSpaceOnUse"
   x1="282.4057"
   y1="143.034"
   x2="279.9805"
   y2="145.4593">
							<stop
   offset="0"
   style="stop-color:#220033;stop-opacity:1;"
   id="stop16" />
							<stop
   offset="0.99010003"
   style="stop-color:#7800b2;stop-opacity:0;"
   id="stop17" />
						</linearGradient>
						<polygon
   style="fill:url(#SVGID_00000090255879868639976830000000915405541234959252_)"
   points="280.11,141.04 282.135,143.068 284.4,145.33 281.622,148.108 277.332,143.818 "
   id="polygon17" />
						
							<linearGradient
   id="SVGID_00000119838180867591887950000011597498859499421320_"
   gradientUnits="userSpaceOnUse"
   x1="299.57281"
   y1="160.2011"
   x2="297.14761"
   y2="162.6264">
							<stop
   offset="0"
   style="stop-color:#220033;stop-opacity:1;"
   id="stop18" />
							<stop
   offset="0.99010003"
   style="stop-color:#7700b2;stop-opacity:0;"
   id="stop19" />
						</linearGradient>
						<path
   style="fill:url(#SVGID_00000119838180867591887950000011597498859499421320_)"
   d="m 303.712,160.352 -4.922,4.925 -4.293,-4.293 2.778,-2.778 2.144,2.146 c 0.593,0.59 1.371,0.888 2.146,0.888 0.779,0 1.554,-0.298 2.147,-0.888 z"
   id="path19" />
					</g>
					
						<linearGradient
   id="SVGID_00000085942648626471649000000016757691340047431834_"
   gradientUnits="userSpaceOnUse"
   x1="258.57669"
   y1="170.8158"
   x2="260.55109"
   y2="172.79021">
						<stop
   offset="0"
   style="stop-color:#220033;stop-opacity:1;"
   id="stop20" />
						<stop
   offset="0.99010003"
   style="stop-color:#7700b2;stop-opacity:0;"
   id="stop21" />
					</linearGradient>
					<path
   style="fill:url(#SVGID_00000085942648626471649000000016757691340047431834_)"
   d="m 262.627,170.231 -4.395,4.395 c -0.615,-0.414 -1.217,-0.855 -1.804,-1.324 l 4.323,-4.323 c 0.607,0.455 1.233,0.872 1.876,1.252 z"
   id="path21" />
				</g>
			</g>
			<g
   id="g40">
				<g
   id="g23">
					
						<linearGradient
   id="SVGID_00000063594554844806466760000005423506136426640271_"
   gradientUnits="userSpaceOnUse"
   x1="-1145.5411"
   y1="137.1691"
   x2="-1083.2653"
   y2="137.1691"
   gradientTransform="matrix(-1,0,0,1,-902,0)">
						<stop
   offset="0"
   style="stop-color:#9500ff;stop-opacity:1;"
   id="stop22" />
						<stop
   offset="1"
   style="stop-color:#8600b2;stop-opacity:1;"
   id="stop23" />
					</linearGradient>
					<path
   style="fill:url(#SVGID_00000063594554844806466760000005423506136426640271_)"
   d="m 181.265,145.33 15.022,15.022 c 0.593,0.59 1.368,0.888 2.146,0.888 0.775,0 1.553,-0.298 2.146,-0.888 l 42.961,-42.961 -4.293,-4.293 -40.815,40.815 -12.876,-12.876 z"
   id="path23" />
				</g>
				<g
   id="g31">
					
						<linearGradient
   id="SVGID_00000068636357195226871820000017498996716475648899_"
   gradientUnits="userSpaceOnUse"
   x1="-1102.5919"
   y1="130.6761"
   x2="-1093.2467"
   y2="130.6761"
   gradientTransform="matrix(-1,0,0,1,-902,0)">
						<stop
   offset="0"
   style="stop-color:#9500ff;stop-opacity:1;"
   id="stop24" />
						<stop
   offset="1"
   style="stop-color:#8600b2;stop-opacity:1;"
   id="stop25" />
					</linearGradient>
					<path
   style="fill:url(#SVGID_00000068636357195226871820000017498996716475648899_)"
   d="m 200.579,126.017 -9.333,9.331 9.345,-9.345 c -0.004,0.005 -0.007,0.01 -0.012,0.014 z"
   id="path25" />
					
						<linearGradient
   id="SVGID_00000134209101041535278010000006461632262818101684_"
   gradientUnits="userSpaceOnUse"
   x1="-1148.7277"
   y1="155.5352"
   x2="-1080.2305"
   y2="155.5352"
   gradientTransform="matrix(-1,0,0,1,-902,0)">
						<stop
   offset="0"
   style="stop-color:#9500ff;stop-opacity:1;"
   id="stop26" />
						<stop
   offset="1"
   style="stop-color:#8600b2;stop-opacity:1;"
   id="stop27" />
					</linearGradient>
					<path
   style="fill:url(#SVGID_00000134209101041535278010000006461632262818101684_)"
   d="m 179.12,138.891 7.084,-7.083 -7.084,7.083 c -0.569,0.57 -0.888,1.341 -0.888,2.146 0,0.805 0.32,1.577 0.889,2.146 l 17.167,17.167 c 0.593,0.592 1.369,0.889 2.146,0.889 0.777,0 1.553,-0.296 2.146,-0.889 l 2.146,-2.146 8.78,8.78 c 7.553,7.553 19.428,8.217 27.743,1.993 L 215.6,145.33 l 4.292,-4.292 25.948,25.946 c 0.569,0.569 0.889,1.341 0.889,2.146 0,0.805 -0.32,1.577 -0.889,2.146 -5.325,5.324 -12.319,7.985 -19.314,7.985 -6.994,0 -13.988,-2.662 -19.312,-7.986 L 179.12,143.181 c -0.569,-0.569 -0.889,-1.341 -0.889,-2.146 0,-0.805 0.319,-1.575 0.889,-2.144 z"
   id="path27" />
					
						<linearGradient
   id="SVGID_00000065034917867628988480000007479078796649432765_"
   gradientUnits="userSpaceOnUse"
   x1="-1148.7277"
   y1="160.15041"
   x2="-1098.2874"
   y2="160.15041"
   gradientTransform="matrix(-1,0,0,1,-902,0)">
						<stop
   offset="0"
   style="stop-color:#9500ff;stop-opacity:1;"
   id="stop28" />
						<stop
   offset="1"
   style="stop-color:#8600b2;stop-opacity:1;"
   id="stop29" />
					</linearGradient>
					<path
   style="fill:url(#SVGID_00000065034917867628988480000007479078796649432765_)"
   d="m 196.287,160.352 4.922,4.925 6.003,6.001 c 5.325,5.325 12.318,7.984 19.312,7.984 5.325,0 10.655,-1.542 15.243,-4.635 0.615,-0.414 1.217,-0.855 1.804,-1.324 0.783,-0.623 1.542,-1.299 2.268,-2.025 0.568,-0.568 0.888,-1.341 0.888,-2.146 0,-0.806 -0.32,-1.578 -0.888,-2.146 l -23.172,-23.166 -2.778,-2.778 -2.025,2.028 -2.265,2.262 2.778,2.778 20.871,20.871 c -0.607,0.455 -1.233,0.872 -1.876,1.252 -8.15,4.839 -18.865,3.755 -25.867,-3.247 l -6.003,-6.001 -2.778,-2.778 -2.144,2.146 c -0.593,0.59 -1.371,0.888 -2.146,0.888 -0.778,-0.001 -1.554,-0.299 -2.147,-0.889 z"
   id="path29" />
					
						<linearGradient
   id="SVGID_00000003812827355433607120000010744334710320193435_"
   gradientUnits="userSpaceOnUse"
   x1="-1148.7277"
   y1="157.17081"
   x2="-1117.5994"
   y2="157.17081"
   gradientTransform="matrix(-1,0,0,1,-902,0)">
						<stop
   offset="0"
   style="stop-color:#9500ff;stop-opacity:1;"
   id="stop30" />
						<stop
   offset="1"
   style="stop-color:#8600b2;stop-opacity:1;"
   id="stop31" />
					</linearGradient>
					<path
   style="fill:url(#SVGID_00000003812827355433607120000010744334710320193435_)"
   d="m 215.599,145.33 2.778,2.778 20.871,20.871 4.323,4.323 c 0.783,-0.623 1.542,-1.299 2.268,-2.025 0.568,-0.568 0.888,-1.341 0.888,-2.146 0,-0.806 -0.32,-1.578 -0.888,-2.146 l -23.172,-23.166 -2.778,-2.778 -2.025,2.028 z"
   id="path31" />
				</g>
				
					<linearGradient
   id="SVGID_00000037657108918280697920000016849252307757493393_"
   gradientUnits="userSpaceOnUse"
   x1="-1103.7485"
   y1="116.261"
   x2="-1125.2097"
   y2="137.7222"
   gradientTransform="matrix(-1,0,0,1,-902,0)">
					<stop
   offset="0"
   style="stop-color:#9500ff;stop-opacity:1;"
   id="stop32" />
					<stop
   offset="1"
   style="stop-color:#8600b2;stop-opacity:1;"
   id="stop33" />
				</linearGradient>
				<path
   style="fill:url(#SVGID_00000037657108918280697920000016849252307757493393_)"
   d="m 178.231,141.037 c 0,0.806 0.32,1.578 0.888,2.146 l 2.146,2.146 30.237,-30.237 c 4.014,-4.014 9.347,-6.224 15.022,-6.224 4.652,0 9.071,1.484 12.724,4.229 l 4.293,4.293 2.298,-2.298 c 0.568,-0.571 0.888,-1.341 0.888,-2.146 0,-0.806 -0.32,-1.578 -0.888,-2.146 -5.159,-5.159 -12.018,-8.001 -19.315,-8.001 -7.294,0 -14.153,2.842 -19.312,8.001 l -28.094,28.091 c -0.567,0.571 -0.887,1.34 -0.887,2.146 z"
   id="path33" />
				<g
   style="opacity:0.61"
   id="g39">
					<g
   id="g37">
						
							<linearGradient
   id="SVGID_00000088814586610852329660000012393778484599146134_"
   gradientUnits="userSpaceOnUse"
   x1="-1119.5938"
   y1="143.034"
   x2="-1122.0189"
   y2="145.4593"
   gradientTransform="matrix(-1,0,0,1,-902,0)">
							<stop
   offset="0"
   style="stop-color:#220033;stop-opacity:1;"
   id="stop34" />
							<stop
   offset="0.99010003"
   style="stop-color:#7800b2;stop-opacity:0;"
   id="stop35" />
						</linearGradient>
						<polygon
   style="fill:url(#SVGID_00000088814586610852329660000012393778484599146134_)"
   points="219.889,141.04 217.864,143.068 215.599,145.33 218.378,148.108 222.668,143.818 "
   id="polygon35" />
						
							<linearGradient
   id="SVGID_00000173132386897842006470000005508080238305465231_"
   gradientUnits="userSpaceOnUse"
   x1="-1102.4268"
   y1="160.2011"
   x2="-1104.8519"
   y2="162.6264"
   gradientTransform="matrix(-1,0,0,1,-902,0)">
							<stop
   offset="0"
   style="stop-color:#220033;stop-opacity:1;"
   id="stop36" />
							<stop
   offset="0.99010003"
   style="stop-color:#7800b2;stop-opacity:0;"
   id="stop37" />
						</linearGradient>
						<path
   style="fill:url(#SVGID_00000173132386897842006470000005508080238305465231_)"
   d="m 196.287,160.352 4.922,4.925 4.293,-4.293 -2.778,-2.778 -2.144,2.146 c -0.593,0.59 -1.371,0.888 -2.146,0.888 -0.778,0 -1.554,-0.298 -2.147,-0.888 z"
   id="path37" />
					</g>
					
						<linearGradient
   id="SVGID_00000151514824601719877070000010667553763451138204_"
   gradientUnits="userSpaceOnUse"
   x1="-1143.4227"
   y1="170.8158"
   x2="-1141.4485"
   y2="172.79021"
   gradientTransform="matrix(-1,0,0,1,-902,0)">
						<stop
   offset="0"
   style="stop-color:#220033;stop-opacity:1;"
   id="stop38" />
						<stop
   offset="0.99010003"
   style="stop-color:#7700b2;stop-opacity:0;"
   id="stop39" />
					</linearGradient>
					<path
   style="fill:url(#SVGID_00000151514824601719877070000010667553763451138204_)"
   d="m 237.372,170.231 4.395,4.395 c 0.615,-0.414 1.217,-0.855 1.804,-1.324 l -4.323,-4.323 c -0.607,0.455 -1.233,0.872 -1.876,1.252 z"
   id="path39" />
				</g>
			</g>
		</g><g
   id="layer1"
   inkscape:label="g45"><g
     id="layer2"
     inkscape:label="g44"
     transform="translate(-18.111255,-3.8809832)"
     style="fill:#999999"><text
       xml:space="preserve"
       transform="translate(178.231,102.799)"
       id="text1"
       style="font-size:11.9475px;font-family:Exo-ExtraLight;-inkscape-font-specification:'Exo-ExtraLight, Normal';text-align:start;writing-mode:lr-tb;direction:ltr;white-space:pre;shape-inside:url(#rect1);fill:#999999"><tspan
         x="17.5878906"
         y="138.32585"
         id="tspan2">Professional Website Themes</tspan></text></g></g>
		<g
   id="g46">
			<g
   id="g43">
				<g
   id="g42">
					
						<text
   style="font-style:normal;font-variant:normal;font-weight:bold;font-stretch:normal;font-size:41.6061px;font-family:'Microsoft JhengHei';-inkscape-font-specification:'Microsoft JhengHei, Bold';font-variant-ligatures:normal;font-variant-caps:normal;font-variant-numeric:normal;font-variant-east-asian:normal;fill:#333333"
   id="text41"
   x="191.20471"
   y="217.98451"><tspan
     sodipodi:role="line"
     id="tspan61"
     x="191.20471"
     y="217.98451">AURA</tspan></text>
				</g>
			</g>
			<g
   id="g45">
				<g
   id="g44">
					
						
				</g>
			</g>
		</g>
	</g>
	
	
</g>
</svg>
